<svg width="32" height="32" viewBox="0 0 32 32" fill="none" xmlns="http://www.w3.org/2000/svg">
<path fill-rule="evenodd" clip-rule="evenodd" d="M9.20019 3.2002C9.86294 3.2002 10.4002 3.73745 10.4002 4.4002V6.4002H21.6002V4.4002C21.6002 3.73745 22.1375 3.2002 22.8002 3.2002C23.4629 3.2002 24.0002 3.73745 24.0002 4.4002V6.4002H24.4002C26.8302 6.4002 28.8002 8.37014 28.8002 10.8002V24.4002C28.8002 26.8302 26.8302 28.8002 24.4002 28.8002H7.6002C5.17014 28.8002 3.2002 26.8302 3.2002 24.4002V10.8002C3.2002 8.37014 5.17014 6.4002 7.60019 6.4002H8.0002V4.4002C8.0002 3.73745 8.53745 3.2002 9.20019 3.2002ZM7.60019 12.0002C6.49563 12.0002 5.6002 12.8956 5.6002 14.0002V24.4002C5.6002 25.5048 6.49563 26.4002 7.6002 26.4002H24.4002C25.5048 26.4002 26.4002 25.5048 26.4002 24.4002V14.0002C26.4002 12.8956 25.5048 12.0002 24.4002 12.0002H7.60019Z" fill="#787878" fill-opacity="0.4" stroke="#787878" stroke-opacity="0.4" stroke-width="0.5" stroke-linecap="round" stroke-linejoin="round"/>
</svg>
