<svg width="23" height="23" viewBox="0 0 23 23" fill="none" xmlns="http://www.w3.org/2000/svg">
<path d="M6.0373 13.8C6.0373 13.3237 6.42346 12.9375 6.89981 12.9375H6.91131C7.38765 12.9375 7.77381 13.3237 7.77381 13.8V13.8116C7.77381 14.2879 7.38765 14.6741 6.91131 14.6741H6.89981C6.42346 14.6741 6.0373 14.2879 6.0373 13.8116V13.8Z" fill="#62635E"/>
<path d="M6.89981 15.2375C6.42346 15.2375 6.0373 15.6237 6.0373 16.1V16.1116C6.0373 16.5879 6.42346 16.9741 6.89981 16.9741H6.91131C7.38765 16.9741 7.77381 16.5879 7.77381 16.1116V16.1C7.77381 15.6237 7.38765 15.2375 6.91131 15.2375H6.89981Z" fill="#62635E"/>
<path d="M8.33731 13.8C8.33731 13.3237 8.72346 12.9375 9.19981 12.9375H9.21131C9.68765 12.9375 10.0738 13.3237 10.0738 13.8V13.8116C10.0738 14.2879 9.68765 14.6741 9.21131 14.6741H9.19981C8.72346 14.6741 8.33731 14.2879 8.33731 13.8116V13.8Z" fill="#62635E"/>
<path d="M9.19981 15.2375C8.72346 15.2375 8.33731 15.6237 8.33731 16.1V16.1116C8.33731 16.5879 8.72346 16.9741 9.19981 16.9741H9.21131C9.68765 16.9741 10.0738 16.5879 10.0738 16.1116V16.1C10.0738 15.6237 9.68765 15.2375 9.21131 15.2375H9.19981Z" fill="#62635E"/>
<path d="M10.6373 11.5C10.6373 11.0237 11.0235 10.6375 11.4998 10.6375H11.5113C11.9877 10.6375 12.3738 11.0237 12.3738 11.5V11.5115C12.3738 11.9879 11.9877 12.3741 11.5113 12.3741H11.4998C11.0235 12.3741 10.6373 11.9879 10.6373 11.5115V11.5Z" fill="#62635E"/>
<path d="M11.4998 12.9375C11.0235 12.9375 10.6373 13.3237 10.6373 13.8V13.8116C10.6373 14.2879 11.0235 14.6741 11.4998 14.6741H11.5113C11.9877 14.6741 12.3738 14.2879 12.3738 13.8116V13.8C12.3738 13.3237 11.9877 12.9375 11.5113 12.9375H11.4998Z" fill="#62635E"/>
<path d="M10.6373 16.1C10.6373 15.6237 11.0235 15.2375 11.4998 15.2375H11.5113C11.9877 15.2375 12.3738 15.6237 12.3738 16.1V16.1116C12.3738 16.5879 11.9877 16.9741 11.5113 16.9741H11.4998C11.0235 16.9741 10.6373 16.5879 10.6373 16.1116V16.1Z" fill="#62635E"/>
<path d="M13.7998 10.6375C13.3235 10.6375 12.9373 11.0237 12.9373 11.5V11.5115C12.9373 11.9879 13.3235 12.3741 13.7998 12.3741H13.8113C14.2877 12.3741 14.6738 11.9879 14.6738 11.5115V11.5C14.6738 11.0237 14.2877 10.6375 13.8113 10.6375H13.7998Z" fill="#62635E"/>
<path d="M12.9373 13.8C12.9373 13.3237 13.3235 12.9375 13.7998 12.9375H13.8113C14.2877 12.9375 14.6738 13.3237 14.6738 13.8V13.8116C14.6738 14.2879 14.2877 14.6741 13.8113 14.6741H13.7998C13.3235 14.6741 12.9373 14.2879 12.9373 13.8116V13.8Z" fill="#62635E"/>
<path d="M13.7998 15.2375C13.3235 15.2375 12.9373 15.6237 12.9373 16.1V16.1116C12.9373 16.5879 13.3235 16.9741 13.7998 16.9741H13.8113C14.2877 16.9741 14.6738 16.5879 14.6738 16.1116V16.1C14.6738 15.6237 14.2877 15.2375 13.8113 15.2375H13.7998Z" fill="#62635E"/>
<path d="M15.2373 11.5C15.2373 11.0237 15.6235 10.6375 16.0998 10.6375H16.1113C16.5877 10.6375 16.9738 11.0237 16.9738 11.5V11.5115C16.9738 11.9879 16.5877 12.3741 16.1113 12.3741H16.0998C15.6235 12.3741 15.2373 11.9879 15.2373 11.5115V11.5Z" fill="#62635E"/>
<path d="M16.0998 12.9375C15.6235 12.9375 15.2373 13.3237 15.2373 13.8V13.8116C15.2373 14.2879 15.6235 14.6741 16.0998 14.6741H16.1113C16.5877 14.6741 16.9738 14.2879 16.9738 13.8116V13.8C16.9738 13.3237 16.5877 12.9375 16.1113 12.9375H16.0998Z" fill="#62635E"/>
<path fill-rule="evenodd" clip-rule="evenodd" d="M6.61231 2.30005C7.08865 2.30005 7.4748 2.6862 7.4748 3.16255V4.60005H15.5248V3.16255C15.5248 2.6862 15.911 2.30005 16.3873 2.30005C16.8637 2.30005 17.2498 2.6862 17.2498 3.16255V4.60005H17.5373C19.2839 4.60005 20.6998 6.01595 20.6998 7.76255V17.5375C20.6998 19.2842 19.2839 20.7001 17.5373 20.7001H5.46231C3.7157 20.7001 2.2998 19.2842 2.2998 17.5375V7.76255C2.2998 6.01595 3.7157 4.60005 5.46231 4.60005H5.7498V3.16255C5.7498 2.6862 6.13596 2.30005 6.61231 2.30005ZM5.46231 8.62505C4.6684 8.62505 4.0248 9.26864 4.0248 10.0625V17.5375C4.0248 18.3315 4.6684 18.975 5.46231 18.975H17.5373C18.3312 18.975 18.9748 18.3315 18.9748 17.5375V10.0625C18.9748 9.26864 18.3312 8.62505 17.5373 8.62505H5.46231Z" fill="#62635E"/>
</svg>
