<svg width="29" height="29" viewBox="0 0 29 29" fill="none" xmlns="http://www.w3.org/2000/svg">
<path d="M25.5999 14.4999C25.5999 20.6303 20.6303 25.5999 14.4999 25.5999C8.36954 25.5999 3.3999 20.6303 3.3999 14.4999C3.3999 8.36954 8.36954 3.3999 14.4999 3.3999C20.6303 3.3999 25.5999 8.36954 25.5999 14.4999ZM12.3599 10.1149C11.74 9.49491 10.7348 9.49491 10.1149 10.1149C9.49491 10.7348 9.49491 11.74 10.1149 12.3599L12.2548 14.4999L10.1149 16.6399C9.49491 17.2598 9.49491 18.265 10.1149 18.8849C10.7348 19.5049 11.74 19.5049 12.3599 18.8849L14.4999 16.745L16.6399 18.8849C17.2598 19.5049 18.265 19.5049 18.8849 18.8849C19.5049 18.265 19.5049 17.2598 18.8849 16.6399L16.745 14.4999L18.8849 12.3599C19.5049 11.74 19.5049 10.7348 18.8849 10.1149C18.265 9.49491 17.2598 9.49491 16.6399 10.1149L14.4999 12.2548L12.3599 10.1149Z" fill="#CC2C3D" stroke="#CC2C3D"/>
</svg>
