<svg width="42" height="42" viewBox="0 0 42 42" fill="none" xmlns="http://www.w3.org/2000/svg">
<path d="M35.0695 15.2425V7.00002H26.8445L20.9995 1.20752L15.242 7.00002H6.99953V15.2425L1.20703 21L6.99953 26.845V35.07H15.242L20.9995 40.8625L26.8445 35.07H35.0695V26.845L40.862 21L35.0695 15.2425ZM15.452 12.3375C17.167 12.3375 18.5495 13.72 18.5495 15.4525C18.5495 16.274 18.2232 17.0619 17.6423 17.6428C17.0614 18.2237 16.2735 18.55 15.452 18.55C13.7195 18.55 12.337 17.1675 12.337 15.4525C12.337 13.72 13.7195 12.3375 15.452 12.3375ZM26.6345 29.75C24.9195 29.75 23.537 28.35 23.537 26.635C23.537 25.8135 23.8634 25.0257 24.4443 24.4448C25.0252 23.8639 25.813 23.5375 26.6345 23.5375C28.3495 23.5375 29.7495 24.92 29.7495 26.635C29.7495 27.4612 29.4213 28.2535 28.8372 28.8377C28.253 29.4218 27.4607 29.75 26.6345 29.75ZM14.8745 29.8025L12.2495 27.1775L27.177 12.25L29.802 14.875L14.8745 29.8025Z" fill="#F7941F"/>
</svg>
