<svg width="176" height="187" viewBox="0 0 176 187" fill="none" xmlns="http://www.w3.org/2000/svg">
<mask id="path-1-outside-1_11_239" maskUnits="userSpaceOnUse" x="-222.602" y="-211.602" width="403.336" height="403.336" fill="black">
<rect fill="white" x="-222.602" y="-211.602" width="403.336" height="403.336"/>
<path fill-rule="evenodd" clip-rule="evenodd" d="M-209.789 -37.9675L-213.007 -40.4749L-211.483 -36.6906L-213.99 -33.4725L-210.206 -34.9966L-206.988 -32.4892L-208.512 -36.2735L-206.005 -39.4916L-209.789 -37.9675ZM-155.617 33.9033L-158.835 31.3959L-157.311 35.1802L-159.819 38.3983L-156.034 36.8742L-152.816 39.3816L-154.34 35.5973L-151.833 32.3792L-155.617 33.9033ZM-104.664 103.267L-101.445 105.774L-97.6611 104.25L-100.169 107.468L-98.6444 111.252L-101.863 108.745L-105.647 110.269L-103.139 107.051L-104.664 103.267ZM-47.2735 177.645L-50.4917 175.138L-48.9676 178.922L-51.4749 182.14L-47.6907 180.616L-44.4726 183.123L-45.9967 179.339L-43.4893 176.121L-47.2735 177.645ZM-141.136 -94.6467L-137.918 -92.1393L-134.134 -93.6634L-136.641 -90.4453L-135.117 -86.6611L-138.335 -89.1685L-142.12 -87.6443L-139.612 -90.8625L-141.136 -94.6467ZM-83.7464 -20.2685L-86.9645 -22.7759L-85.4404 -18.9917L-87.9478 -15.7735L-84.1636 -17.2977L-80.9454 -14.7903L-82.4696 -18.5745L-79.9622 -21.7926L-83.7464 -20.2685ZM-32.7927 49.0949L-29.5746 51.6023L-25.7903 50.0782L-28.2977 53.2963L-26.7736 57.0805L-29.9917 54.5731L-33.776 56.0973L-31.2686 52.8791L-32.7927 49.0949ZM24.5973 123.473L21.3791 120.966L22.9032 124.75L20.3959 127.968L24.1801 126.444L27.3982 128.951L25.8741 125.167L28.3815 121.949L24.5973 123.473ZM-69.2656 -148.819L-66.0474 -146.311L-62.2632 -147.835L-64.7706 -144.617L-63.2465 -140.833L-66.4646 -143.34L-70.2488 -141.816L-67.7414 -145.034L-69.2656 -148.819ZM-11.8756 -74.4403L-15.0937 -76.9477L-13.5696 -73.1635L-16.077 -69.9454L-12.2928 -71.4695L-9.07464 -68.9621L-10.5988 -72.7463L-8.09136 -75.9645L-11.8756 -74.4403ZM39.0781 -5.07694L42.2962 -2.56954L46.0805 -4.09366L43.5731 -0.875534L45.0972 2.9087L41.8791 0.4013L38.0948 1.92543L40.6022 -1.2927L39.0781 -5.07694ZM96.4681 69.3013L93.2499 66.7939L94.7741 70.5781L92.2667 73.7962L96.0509 72.2721L99.269 74.7795L97.7449 70.9953L100.252 67.7771L96.4681 69.3013ZM2.60524 -202.99L5.82337 -200.483L9.6076 -202.007L7.10022 -198.789L8.62433 -195.005L5.40619 -197.512L1.62196 -195.988L4.12935 -199.206L2.60524 -202.99ZM59.9952 -128.612L56.7771 -131.12L58.3012 -127.335L55.7938 -124.117L59.578 -125.641L62.7962 -123.134L61.2721 -126.918L63.7794 -130.136L59.9952 -128.612ZM110.949 -59.2488L114.167 -56.7414L117.951 -58.2655L115.444 -55.0474L116.968 -51.2631L113.75 -53.7705L109.966 -52.2464L112.473 -55.4645L110.949 -59.2488ZM168.339 15.1294L165.121 12.622L166.645 16.4063L164.137 19.6244L167.922 18.1003L171.14 20.6077L169.616 16.8234L172.123 13.6053L168.339 15.1294Z"/>
</mask>
<path fill-rule="evenodd" clip-rule="evenodd" d="M-209.789 -37.9675L-213.007 -40.4749L-211.483 -36.6906L-213.99 -33.4725L-210.206 -34.9966L-206.988 -32.4892L-208.512 -36.2735L-206.005 -39.4916L-209.789 -37.9675ZM-155.617 33.9033L-158.835 31.3959L-157.311 35.1802L-159.819 38.3983L-156.034 36.8742L-152.816 39.3816L-154.34 35.5973L-151.833 32.3792L-155.617 33.9033ZM-104.664 103.267L-101.445 105.774L-97.6611 104.25L-100.169 107.468L-98.6444 111.252L-101.863 108.745L-105.647 110.269L-103.139 107.051L-104.664 103.267ZM-47.2735 177.645L-50.4917 175.138L-48.9676 178.922L-51.4749 182.14L-47.6907 180.616L-44.4726 183.123L-45.9967 179.339L-43.4893 176.121L-47.2735 177.645ZM-141.136 -94.6467L-137.918 -92.1393L-134.134 -93.6634L-136.641 -90.4453L-135.117 -86.6611L-138.335 -89.1685L-142.12 -87.6443L-139.612 -90.8625L-141.136 -94.6467ZM-83.7464 -20.2685L-86.9645 -22.7759L-85.4404 -18.9917L-87.9478 -15.7735L-84.1636 -17.2977L-80.9454 -14.7903L-82.4696 -18.5745L-79.9622 -21.7926L-83.7464 -20.2685ZM-32.7927 49.0949L-29.5746 51.6023L-25.7903 50.0782L-28.2977 53.2963L-26.7736 57.0805L-29.9917 54.5731L-33.776 56.0973L-31.2686 52.8791L-32.7927 49.0949ZM24.5973 123.473L21.3791 120.966L22.9032 124.75L20.3959 127.968L24.1801 126.444L27.3982 128.951L25.8741 125.167L28.3815 121.949L24.5973 123.473ZM-69.2656 -148.819L-66.0474 -146.311L-62.2632 -147.835L-64.7706 -144.617L-63.2465 -140.833L-66.4646 -143.34L-70.2488 -141.816L-67.7414 -145.034L-69.2656 -148.819ZM-11.8756 -74.4403L-15.0937 -76.9477L-13.5696 -73.1635L-16.077 -69.9454L-12.2928 -71.4695L-9.07464 -68.9621L-10.5988 -72.7463L-8.09136 -75.9645L-11.8756 -74.4403ZM39.0781 -5.07694L42.2962 -2.56954L46.0805 -4.09366L43.5731 -0.875534L45.0972 2.9087L41.8791 0.4013L38.0948 1.92543L40.6022 -1.2927L39.0781 -5.07694ZM96.4681 69.3013L93.2499 66.7939L94.7741 70.5781L92.2667 73.7962L96.0509 72.2721L99.269 74.7795L97.7449 70.9953L100.252 67.7771L96.4681 69.3013ZM2.60524 -202.99L5.82337 -200.483L9.6076 -202.007L7.10022 -198.789L8.62433 -195.005L5.40619 -197.512L1.62196 -195.988L4.12935 -199.206L2.60524 -202.99ZM59.9952 -128.612L56.7771 -131.12L58.3012 -127.335L55.7938 -124.117L59.578 -125.641L62.7962 -123.134L61.2721 -126.918L63.7794 -130.136L59.9952 -128.612ZM110.949 -59.2488L114.167 -56.7414L117.951 -58.2655L115.444 -55.0474L116.968 -51.2631L113.75 -53.7705L109.966 -52.2464L112.473 -55.4645L110.949 -59.2488ZM168.339 15.1294L165.121 12.622L166.645 16.4063L164.137 19.6244L167.922 18.1003L171.14 20.6077L169.616 16.8234L172.123 13.6053L168.339 15.1294Z" fill="#F7941F"/>
<path fill-rule="evenodd" clip-rule="evenodd" d="M-209.789 -37.9675L-213.007 -40.4749L-211.483 -36.6906L-213.99 -33.4725L-210.206 -34.9966L-206.988 -32.4892L-208.512 -36.2735L-206.005 -39.4916L-209.789 -37.9675ZM-155.617 33.9033L-158.835 31.3959L-157.311 35.1802L-159.819 38.3983L-156.034 36.8742L-152.816 39.3816L-154.34 35.5973L-151.833 32.3792L-155.617 33.9033ZM-104.664 103.267L-101.445 105.774L-97.6611 104.25L-100.169 107.468L-98.6444 111.252L-101.863 108.745L-105.647 110.269L-103.139 107.051L-104.664 103.267ZM-47.2735 177.645L-50.4917 175.138L-48.9676 178.922L-51.4749 182.14L-47.6907 180.616L-44.4726 183.123L-45.9967 179.339L-43.4893 176.121L-47.2735 177.645ZM-141.136 -94.6467L-137.918 -92.1393L-134.134 -93.6634L-136.641 -90.4453L-135.117 -86.6611L-138.335 -89.1685L-142.12 -87.6443L-139.612 -90.8625L-141.136 -94.6467ZM-83.7464 -20.2685L-86.9645 -22.7759L-85.4404 -18.9917L-87.9478 -15.7735L-84.1636 -17.2977L-80.9454 -14.7903L-82.4696 -18.5745L-79.9622 -21.7926L-83.7464 -20.2685ZM-32.7927 49.0949L-29.5746 51.6023L-25.7903 50.0782L-28.2977 53.2963L-26.7736 57.0805L-29.9917 54.5731L-33.776 56.0973L-31.2686 52.8791L-32.7927 49.0949ZM24.5973 123.473L21.3791 120.966L22.9032 124.75L20.3959 127.968L24.1801 126.444L27.3982 128.951L25.8741 125.167L28.3815 121.949L24.5973 123.473ZM-69.2656 -148.819L-66.0474 -146.311L-62.2632 -147.835L-64.7706 -144.617L-63.2465 -140.833L-66.4646 -143.34L-70.2488 -141.816L-67.7414 -145.034L-69.2656 -148.819ZM-11.8756 -74.4403L-15.0937 -76.9477L-13.5696 -73.1635L-16.077 -69.9454L-12.2928 -71.4695L-9.07464 -68.9621L-10.5988 -72.7463L-8.09136 -75.9645L-11.8756 -74.4403ZM39.0781 -5.07694L42.2962 -2.56954L46.0805 -4.09366L43.5731 -0.875534L45.0972 2.9087L41.8791 0.4013L38.0948 1.92543L40.6022 -1.2927L39.0781 -5.07694ZM96.4681 69.3013L93.2499 66.7939L94.7741 70.5781L92.2667 73.7962L96.0509 72.2721L99.269 74.7795L97.7449 70.9953L100.252 67.7771L96.4681 69.3013ZM2.60524 -202.99L5.82337 -200.483L9.6076 -202.007L7.10022 -198.789L8.62433 -195.005L5.40619 -197.512L1.62196 -195.988L4.12935 -199.206L2.60524 -202.99ZM59.9952 -128.612L56.7771 -131.12L58.3012 -127.335L55.7938 -124.117L59.578 -125.641L62.7962 -123.134L61.2721 -126.918L63.7794 -130.136L59.9952 -128.612ZM110.949 -59.2488L114.167 -56.7414L117.951 -58.2655L115.444 -55.0474L116.968 -51.2631L113.75 -53.7705L109.966 -52.2464L112.473 -55.4645L110.949 -59.2488ZM168.339 15.1294L165.121 12.622L166.645 16.4063L164.137 19.6244L167.922 18.1003L171.14 20.6077L169.616 16.8234L172.123 13.6053L168.339 15.1294Z" stroke="#F7941F" stroke-width="2" mask="url(#path-1-outside-1_11_239)"/>
</svg>
