<svg width="128" height="139" viewBox="0 0 128 139" fill="none" xmlns="http://www.w3.org/2000/svg">
<path d="M38.5823 49.6783C44.721 48.5816 50.8779 47.5217 57.0287 46.4495C60.8085 45.798 64.6267 45.2819 68.3194 44.397C69.331 44.1526 70.2786 43.6825 71.3779 43.6922L71.361 43.6966C72.4293 43.4512 73.4894 43.1317 74.5887 42.9682C78.7426 42.3226 83.019 41.4439 87.0603 40.994C87.2241 40.9788 87.4067 40.8478 87.6379 40.8149C88.7426 40.643 92.6794 40.1166 95.186 39.6811C100.977 38.6894 106.77 37.7596 112.76 37.4775C113.699 37.4323 126.59 35.9783 127.173 38.021C127.787 40.1456 115.767 42.7632 114.175 42.9312C110.291 43.3536 106.307 43.4769 102.623 44.4565C97.2323 45.8905 91.5868 46.4839 86.0682 47.4874C81.107 48.3862 76.0823 49.0801 71.1386 49.9951C66.4934 50.8596 61.9448 52.0728 57.2612 52.8019C53.2146 53.4333 49.0208 53.5561 44.9175 54.0154C43.9523 54.1229 42.9172 54.6852 41.8677 54.8148C40.999 54.9248 39.5559 55.1438 38.6426 55.1062C38.2456 55.0926 37.8364 55.0544 37.5008 55.1839C35.946 55.7923 22.3473 57.4317 21.6988 54.9492C21.0638 52.5323 33.249 50.6331 38.5823 49.6783Z" fill="#F7941F"/>
<path d="M37.4106 67.6376C40.9594 67.7115 44.5035 67.8145 48.0421 67.9257C50.2139 67.9866 52.3735 68.1962 54.5715 68.0217C55.1761 67.974 55.79 67.6953 56.3805 67.9076L56.3691 67.9037C56.9966 67.8639 57.6389 67.7578 58.2745 67.792C60.6471 67.9319 63.1437 67.88 65.4086 68.1866C65.4996 68.1974 65.6269 68.1086 65.7631 68.1145C66.3933 68.1571 68.621 68.3695 70.0614 68.4144C73.3905 68.5252 76.7101 68.6939 79.9612 69.5315C80.4641 69.6629 87.6853 70.6372 87.4763 72.7143C87.2532 74.8783 80.1935 75.1914 79.2997 75.0586C77.1313 74.7544 74.981 74.1407 72.7689 74.402C69.5357 74.7924 66.3878 74.3364 63.1909 74.281C60.3229 74.2363 57.4818 73.9769 54.6145 73.9528C51.917 73.9258 49.1974 74.2578 46.5127 74.1028C44.2081 73.9658 41.9432 73.3129 39.644 72.9945C39.1034 72.9215 38.4126 73.2758 37.8154 73.2038C37.3207 73.1465 36.503 73.0907 36.0318 72.8887C35.8249 72.7975 35.6173 72.6857 35.4043 72.7554C34.423 73.0611 26.7785 72.1354 27.0804 69.6115C27.3789 67.1576 34.3437 67.5758 37.4106 67.6376Z" fill="#F7941F"/>
<path d="M40.946 85.6585C43.4218 86.0068 45.8868 86.3718 48.3465 86.7451C49.8611 86.9783 51.3232 87.3361 52.9038 87.3373C53.3399 87.3338 53.848 87.1106 54.202 87.3641L54.1905 87.3602C54.6495 87.3645 55.1294 87.3149 55.5514 87.3982C57.1819 87.7118 58.954 87.8498 60.4539 88.3224C60.5112 88.342 60.6331 88.2615 60.7188 88.2806C61.1522 88.3679 62.6601 88.7414 63.6624 88.9011C65.9798 89.2563 68.2656 89.6821 70.3231 90.7426C70.6514 90.9059 75.4597 92.4088 74.756 94.4287C74.0152 96.5275 68.9714 96.2983 68.3815 96.1066C66.9329 95.6414 65.5934 94.8775 63.965 94.9719C61.5843 95.1043 59.4939 94.4195 57.2635 94.1246C55.2609 93.8669 53.3303 93.3895 51.3169 93.1486C49.4343 92.9218 47.4271 93.0393 45.5855 92.6841C43.9947 92.3739 42.5857 91.5658 41.0515 91.0815C40.6908 90.9683 40.1113 91.2587 39.7055 91.1504C39.3738 91.0573 38.815 90.9475 38.5352 90.7092C38.4186 90.6082 38.3012 90.4866 38.1328 90.5307C37.3584 90.7545 32.2333 89.2654 33.1269 86.8217C34.0112 84.436 38.8005 85.3622 40.946 85.6585Z" fill="#F7941F"/>
<path d="M23.3784 103.894C24.9942 104.274 26.5938 104.679 28.188 105.092C29.1708 105.347 30.0781 105.719 31.1782 105.749C31.4788 105.76 31.9081 105.551 32.0807 105.803C32.3928 105.818 32.7426 105.775 33.0176 105.869C34.0598 106.206 35.2495 106.379 36.1434 106.858C36.1724 106.878 36.289 106.806 36.3463 106.825C36.6213 106.919 37.5577 107.311 38.2034 107.481C39.7006 107.871 41.1715 108.324 42.2772 109.384C42.4525 109.546 45.3473 111.087 44.2209 113.003C43.0575 114.998 39.6138 114.674 39.2619 114.483C38.4077 114.007 37.697 113.245 36.5377 113.306C34.8352 113.385 33.594 112.686 32.1387 112.361C30.8317 112.066 29.6203 111.58 28.3025 111.302C27.0588 111.04 25.6225 111.119 24.4543 110.739C23.4465 110.415 22.7116 109.603 21.7947 109.116C21.5756 109 21.0803 109.269 20.8443 109.157C20.6374 109.066 20.2876 108.936 20.1668 108.712C20.1183 108.614 20.0744 108.487 19.9342 108.53C19.329 108.731 16.2192 107.198 17.5929 104.878C18.9328 102.567 21.9736 103.556 23.3784 103.894Z" fill="#F7941F"/>
</svg>
