<svg width="361" height="78" viewBox="0 0 361 78" fill="none" xmlns="http://www.w3.org/2000/svg">
<g opacity="0.4">
<path d="M37.3636 57.7948C37.0923 54.406 36.3841 54.4362 35.9472 54.3007C33.3046 53.6116 30.5439 53.5035 27.8556 53.9843C26.6954 54.1349 24.842 54.1198 24.3749 54.1499C24.2694 54.1499 24.1791 54.3157 24.1188 54.3007C23.4317 54.2483 22.7416 54.2483 22.0545 54.3007C21.9339 53.4723 21.8736 52.6439 21.7682 51.8005C21.4367 49.466 21.2107 47.1164 20.7285 44.7819C20.6381 44.315 21.6928 43.7427 19.2217 43.4867H19.1162C18.2585 43.4224 17.3973 43.4224 16.5396 43.4867C12.6521 43.6072 11.4315 43.8934 12.0192 44.4657C12.1548 44.6013 12.0192 44.7519 11.8986 44.9025C11.6909 45.2794 11.5967 45.7083 11.6274 46.1375C11.6274 46.5441 12.2753 46.9207 12.2301 47.2972C11.8228 48.8421 11.5506 50.4194 11.4164 52.0114C11.6253 53.4226 11.9891 54.8065 12.5013 56.1381C11.7178 56.2285 10.9945 56.2737 10.1507 56.3791C7.3179 56.7255 4.48517 56.9966 1.65238 57.5087C1.0798 57.5991 0.416809 56.5599 0.0551766 59.0148C0.0551766 59.0148 0.0551766 59.1051 0.0551766 59.1202C-0.0183922 59.9771 -0.0183922 60.8387 0.0551766 61.6956C0.0551766 65.5964 0.416765 66.8013 1.14003 66.2139C1.29071 66.0784 1.48656 66.214 1.66738 66.3345C2.14328 66.5336 2.65988 66.6161 3.17418 66.5754C3.67142 66.5754 4.13854 65.9279 4.59058 65.958C6.46176 66.3557 8.36105 66.6075 10.2713 66.7111C11.4589 66.5951 12.6308 66.3528 13.7671 65.9881C13.8255 67.1653 14.1228 68.3182 14.641 69.3769C15.3794 70.7625 14.641 72.2986 14.4903 73.7746C14.4903 74.3921 16.5094 74.603 20.0504 74.3168C23.5914 74.0307 23.4106 73.4434 23.5462 73.0819C24.2694 70.9173 24.4098 68.6006 23.9531 66.3647C23.9069 65.713 23.9019 65.059 23.938 64.4067C26.379 64.0753 28.8652 64.2861 31.2459 63.2168C32.9486 62.4486 34.787 63.1264 36.565 63.2168C37.3335 63.4276 37.6348 61.3944 37.3636 57.7948Z" fill="#F7941F"/>
<path d="M95.7214 86.4856C95.3145 83.1119 94.6063 83.1721 94.2146 83.0667C91.535 82.4717 88.7574 82.4717 86.0778 83.0667C84.9326 83.2474 83.0642 83.3076 82.5971 83.3528C82.4916 83.3528 82.4012 83.5335 82.3409 83.5335C81.5946 83.5167 80.8482 83.5672 80.1109 83.6842C79.7794 81.5305 79.5081 79.3616 79.026 77.223C78.9205 76.7561 79.9602 76.1687 77.5191 75.9579H77.4137C76.558 75.936 75.7019 75.9762 74.8521 76.0783C70.9645 76.2741 69.744 76.5602 70.3317 77.1325C70.4673 77.2681 70.3317 77.4187 70.2112 77.5844C70.0178 77.9658 69.9342 78.3933 69.97 78.8193C69.97 79.226 70.633 79.5875 70.6029 79.964C70.2125 81.5145 69.9653 83.0976 69.8646 84.6932C69.8996 85.147 69.9804 85.5961 70.1057 86.0337L68.4181 86.2747C65.6004 86.7416 62.7525 87.1181 59.9348 87.7808C59.3622 87.9164 58.654 86.8922 58.428 89.2869C58.428 89.2869 58.428 89.3772 58.428 89.3923C58.3963 90.2531 58.4417 91.1151 58.5635 91.9679C58.7745 95.8537 59.1362 97.0585 59.8293 96.3958C59.98 96.2452 60.1758 96.3959 60.3566 96.4862C60.8362 96.6702 61.3539 96.7322 61.8634 96.6669C62.3456 96.6669 62.7977 95.974 63.2498 96.0042C65.1489 96.3127 67.0671 96.4888 68.9907 96.5313C70.0842 96.3792 71.1596 96.117 72.2002 95.7482C72.5769 97.8116 72.3357 99.9352 73.4357 101.923C74.2041 103.294 73.5412 104.845 73.4357 106.336C73.4357 106.939 75.4699 107.119 78.9958 106.758C82.5217 106.396 82.3409 105.824 82.4765 105.463C83.1548 103.287 83.2535 100.971 82.7628 98.7454C82.6121 97.7965 82.6272 96.2904 82.5971 95.8687C82.5971 95.7783 82.4163 95.718 82.4313 95.6578C82.4987 95.032 82.4987 94.4009 82.4313 93.7751C84.9477 93.2932 87.5394 93.4438 89.9654 92.269C91.6379 91.4407 93.5063 92.0281 95.3145 92.1335C95.9172 92.1185 96.1433 90.0099 95.7214 86.4856Z" fill="#F7941F"/>
<path d="M93.4617 15.7748C93.2207 12.371 92.6932 12.4012 92.3617 12.2506C90.447 11.4938 88.3556 11.3004 86.3345 11.6933C86.0887 11.7097 85.842 11.7097 85.5962 11.6933C85.5962 11.0608 85.5058 10.4282 85.4455 9.81069C85.1291 7.0545 84.9181 4.29834 84.4661 1.55721C84.3757 0.999952 85.4304 0.367384 82.9593 0.0511001H82.8538C81.9963 -0.0170334 81.1347 -0.0170334 80.2772 0.0511001C76.3746 0.0511001 75.1541 0.352374 75.7568 1.04519C75.8924 1.1958 75.7568 1.37648 75.6212 1.55721C75.4025 2.02754 75.3091 2.54632 75.3499 3.06333C75.3499 3.53022 75.9979 4.01223 75.9527 4.43394C75.5294 6.24235 75.2422 8.07979 75.0938 9.93111C75.1959 11.1289 75.4334 12.3113 75.802 13.4556C74.8828 13.6513 73.9486 13.6664 73.0295 13.7869C70.9049 14.058 68.7652 14.2386 66.6557 14.6603C66.2187 14.6603 65.7064 13.6814 65.4502 16.0611C65.4575 16.0959 65.4575 16.1317 65.4502 16.1664C65.3926 17.0189 65.3926 17.8745 65.4502 18.727C65.4502 22.6278 65.7667 23.8477 66.3091 23.2453C66.4146 23.1097 66.5653 23.2452 66.7009 23.3808C67.0328 23.5921 67.4233 23.6922 67.8159 23.6669C68.1776 23.6669 68.5392 23.0494 68.8707 23.0945C70.2649 23.5353 71.6977 23.8431 73.15 24.0134C74.4814 23.8248 75.7861 23.481 77.0376 22.9892C77.354 25.414 77.0376 27.8689 78.1225 30.2486C78.8608 31.9053 78.1224 33.6675 77.9567 35.3996C77.8663 36.1074 79.9608 36.4388 83.5018 36.2129C87.0428 35.987 86.877 35.3092 87.0126 34.8875C87.7498 32.3391 87.9094 29.6584 87.4797 27.0405C87.3591 25.926 87.4043 24.1639 87.3742 23.6819C87.3742 23.5765 87.2085 23.4862 87.2236 23.4109C87.2689 22.8697 87.2689 22.3255 87.2236 21.7842C87.783 21.6717 88.3218 21.4738 88.8208 21.197C90.1016 20.4891 91.4878 21.1969 92.8288 21.4378C93.4918 21.3927 93.7028 19.3142 93.4617 15.7748Z" fill="#F7941F"/>
<path d="M154.155 54.1958C153.507 50.8372 153.01 50.9276 152.648 50.8071C150.734 50.2687 148.703 50.316 146.817 50.9428C146.018 51.1386 144.707 51.2289 144.345 51.2891C144.345 51.2891 144.24 51.4548 144.18 51.4548C143.503 51.457 142.829 51.5481 142.176 51.7258C142.01 51.0631 141.92 50.4005 141.754 49.7529C141.302 47.8401 140.925 45.9122 140.247 44.0296C140.126 43.653 141.136 43.0657 138.74 43.0958H138.635C137.781 43.163 136.931 43.2736 136.088 43.4271C132.231 43.9392 131.04 44.3008 131.703 44.7074C131.839 44.7978 131.703 44.9484 131.598 45.084C131.427 45.4072 131.364 45.7765 131.417 46.1382C131.417 46.4695 132.11 46.7255 132.08 47.0267C131.775 48.342 131.599 49.6837 131.553 51.033C131.91 52.3173 132.416 53.5556 133.06 54.7229C131.553 55.0995 130.046 55.446 128.539 55.943C128.147 56.0785 127.53 55.0845 127.575 57.4491V57.5544C127.645 58.4042 127.766 59.2492 127.936 60.0848C128.509 63.9404 128.886 65.1303 129.308 64.4526C129.413 64.3019 129.564 64.4525 129.699 64.5428C130.038 64.7174 130.424 64.7756 130.799 64.7085C131.146 64.7085 131.402 64.0007 131.719 64.0157C132.939 64.0157 134.22 64.5128 135.41 64.4676L135.742 64.9947C136.57 66.0641 135.968 67.4195 135.862 68.6696C135.862 69.1816 137.912 69.1365 141.407 68.519C144.903 67.9015 144.707 67.4498 144.813 67.1335C145.387 65.3409 145.387 63.4137 144.813 61.6211L145.069 61.5457C146.847 61.0185 148.73 61.1542 150.373 59.9191C151.488 59.0607 152.889 59.633 154.185 59.7083C154.878 59.7685 154.818 57.675 154.155 54.1958Z" fill="#F7941F"/>
</g>
</svg>
