<svg width="20" height="20" viewBox="0 0 20 20" fill="none" xmlns="http://www.w3.org/2000/svg">
<path d="M20 10C20 15.5333 15.5333 20 10 20C4.46667 20 0 15.5333 0 10C0 4.46667 4.46667 0 10 0C15.5333 0 20 4.46667 20 10Z" fill="#FFDD67"/>
<path d="M15.6663 12C15.6663 11.7334 15.4997 11.4 15.0663 11.3C13.8997 11.0667 12.1997 10.8667 9.99967 10.8667C7.79967 10.8667 6.09967 11.1 4.93301 11.3C4.49967 11.4 4.33301 11.7334 4.33301 12C4.33301 14.4334 6.19967 16.8667 9.99967 16.8667C13.7997 16.8667 15.6663 14.4334 15.6663 12Z" fill="#664E27"/>
<path d="M8.83291 8.30006C8.19958 6.60006 7.26625 5.7334 6.33291 5.7334C5.39958 5.7334 4.46625 6.60006 3.83291 8.30006C3.76625 8.46673 4.09958 8.76673 4.26625 8.60006C4.86625 7.96673 5.59958 7.70006 6.33291 7.70006C7.06625 7.70006 7.79958 7.96673 8.39958 8.60006C8.59958 8.76673 8.89958 8.46673 8.83291 8.30006Z" fill="#664E27"/>
<path d="M16.1337 8.30006C15.5004 6.60006 14.567 5.7334 13.6337 5.7334C12.7004 5.7334 11.767 6.60006 11.1337 8.30006C11.067 8.46673 11.4004 8.76673 11.567 8.60006C12.167 7.96673 12.9004 7.70006 13.6337 7.70006C14.4004 7.70006 15.1004 7.96673 15.7004 8.60006C15.867 8.76673 16.2004 8.46673 16.1337 8.30006Z" fill="#664E27"/>
<path d="M14.2338 12.0999C13.5005 11.9666 11.9671 11.7666 10.0005 11.7666C8.03381 11.7666 6.50047 11.9666 5.76714 12.0999C5.33381 12.1666 5.30047 12.3333 5.33381 12.5999C5.36714 12.7333 5.36714 12.9333 5.43381 13.1333C5.46714 13.3333 5.53381 13.4333 5.86714 13.3999C6.50047 13.3333 13.5338 13.3333 14.1671 13.3999C14.5005 13.4333 14.5338 13.3333 14.6005 13.1333C14.6338 12.9333 14.6671 12.7666 14.7005 12.5999C14.7005 12.3333 14.6671 12.1666 14.2338 12.0999Z" fill="white"/>
<path d="M20 10C20 15.5333 15.5333 20 10 20C4.46667 20 0 15.5333 0 10C0 4.46667 4.46667 0 10 0C15.5333 0 20 4.46667 20 10Z" fill="#FFDD67"/>
<path d="M15.6663 12C15.6663 11.7334 15.4997 11.4 15.0663 11.3C13.8997 11.0667 12.1997 10.8667 9.99967 10.8667C7.79967 10.8667 6.09967 11.1 4.93301 11.3C4.49967 11.4 4.33301 11.7334 4.33301 12C4.33301 14.4334 6.19967 16.8667 9.99967 16.8667C13.7997 16.8667 15.6663 14.4334 15.6663 12Z" fill="#664E27"/>
<path d="M8.83291 8.30006C8.19958 6.60006 7.26625 5.7334 6.33291 5.7334C5.39958 5.7334 4.46625 6.60006 3.83291 8.30006C3.76625 8.46673 4.09958 8.76673 4.26625 8.60006C4.86625 7.96673 5.59958 7.70006 6.33291 7.70006C7.06625 7.70006 7.79958 7.96673 8.39958 8.60006C8.59958 8.76673 8.89958 8.46673 8.83291 8.30006Z" fill="#664E27"/>
<path d="M16.1337 8.30006C15.5004 6.60006 14.567 5.7334 13.6337 5.7334C12.7004 5.7334 11.767 6.60006 11.1337 8.30006C11.067 8.46673 11.4004 8.76673 11.567 8.60006C12.167 7.96673 12.9004 7.70006 13.6337 7.70006C14.4004 7.70006 15.1004 7.96673 15.7004 8.60006C15.867 8.76673 16.2004 8.46673 16.1337 8.30006Z" fill="#664E27"/>
<path d="M14.2338 12.0999C13.5005 11.9666 11.9671 11.7666 10.0005 11.7666C8.03381 11.7666 6.50047 11.9666 5.76714 12.0999C5.33381 12.1666 5.30047 12.3333 5.33381 12.5999C5.36714 12.7333 5.36714 12.9333 5.43381 13.1333C5.46714 13.3333 5.53381 13.3999 5.86714 13.3999H14.1671C14.5005 13.3999 14.5338 13.3333 14.6005 13.1333C14.6338 12.9333 14.6671 12.7666 14.7005 12.5999C14.7005 12.3333 14.6671 12.1666 14.2338 12.0999Z" fill="white"/>
</svg>
