<svg width="20" height="20" viewBox="0 0 20 20" fill="none" xmlns="http://www.w3.org/2000/svg">
<path d="M10 20C15.5228 20 20 15.5228 20 10C20 4.47715 15.5228 0 10 0C4.47715 0 0 4.47715 0 10C0 15.5228 4.47715 20 10 20Z" fill="#FFDD67"/>
<path d="M6.16764 10.2C7.08812 10.2 7.83431 9.45384 7.83431 8.53337C7.83431 7.61289 7.08812 6.8667 6.16764 6.8667C5.24717 6.8667 4.50098 7.61289 4.50098 8.53337C4.50098 9.45384 5.24717 10.2 6.16764 10.2Z" fill="#664E27"/>
<path d="M13.8337 10.2C14.7541 10.2 15.5003 9.45384 15.5003 8.53337C15.5003 7.61289 14.7541 6.8667 13.8337 6.8667C12.9132 6.8667 12.167 7.61289 12.167 8.53337C12.167 9.45384 12.9132 10.2 13.8337 10.2Z" fill="#664E27"/>
<path d="M12.3012 15.3333H7.70117C7.20117 15.3333 7.20117 14 7.70117 14H12.2678C12.8012 14 12.8012 15.3333 12.3012 15.3333Z" fill="#664E27"/>
</svg>
