<svg width="20" height="20" viewBox="0 0 20 20" fill="none" xmlns="http://www.w3.org/2000/svg">
<path d="M10 20C15.5228 20 20 15.5228 20 10C20 4.47715 15.5228 0 10 0C4.47715 0 0 4.47715 0 10C0 15.5228 4.47715 20 10 20Z" fill="#FFDD67"/>
<path d="M6.16764 9.86678C7.08812 9.86678 7.83431 9.12059 7.83431 8.20011C7.83431 7.27964 7.08812 6.53345 6.16764 6.53345C5.24717 6.53345 4.50098 7.27964 4.50098 8.20011C4.50098 9.12059 5.24717 9.86678 6.16764 9.86678Z" fill="#664E27"/>
<path d="M13.8337 9.86678C14.7541 9.86678 15.5003 9.12059 15.5003 8.20011C15.5003 7.27964 14.7541 6.53345 13.8337 6.53345C12.9132 6.53345 12.167 7.27964 12.167 8.20011C12.167 9.12059 12.9132 9.86678 13.8337 9.86678Z" fill="#664E27"/>
<path d="M14.2009 12.7667C11.5009 14.6667 8.50092 14.6333 5.80092 12.7667C5.46759 12.5333 5.20092 12.9333 5.40092 13.3C6.23426 14.6333 7.86759 15.8667 10.0009 15.8667C12.1343 15.8667 13.7676 14.6667 14.6009 13.3C14.8009 12.9333 14.5343 12.5333 14.2009 12.7667Z" fill="#664E27"/>
</svg>
