<svg width="22" height="22" viewBox="0 0 22 22" fill="none" xmlns="http://www.w3.org/2000/svg">
<g clip-path="url(#clip0_25_1417)">
<path d="M21.9877 11.2059C21.9877 10.3045 21.9145 9.64681 21.7562 8.96472H11.4639V13.0329H17.5053C17.3835 14.0439 16.7258 15.5664 15.2641 16.5895L15.2436 16.7257L18.4979 19.2467L18.7233 19.2692C20.7939 17.3569 21.9877 14.5432 21.9877 11.2059Z" fill="#4285F4"/>
<path d="M11.464 21.9244C14.4238 21.9244 16.9085 20.9499 18.7234 19.2691L15.2642 16.5894C14.3385 17.2349 13.0961 17.6856 11.464 17.6856C8.56514 17.6856 6.10475 15.7734 5.22769 13.1302L5.09914 13.1412L1.71533 15.7599L1.67108 15.8829C3.47374 19.4639 7.17654 21.9244 11.464 21.9244Z" fill="#34A853"/>
<path d="M5.2279 13.1303C4.99648 12.4482 4.86255 11.7174 4.86255 10.9622C4.86255 10.207 4.99648 9.47621 5.21572 8.79413L5.20959 8.64886L1.78339 5.98804L1.67129 6.04136C0.928327 7.52737 0.502014 9.19609 0.502014 10.9622C0.502014 12.7284 0.928327 14.397 1.67129 15.883L5.2279 13.1303Z" fill="#FBBC05"/>
<path d="M11.464 4.23869C13.5224 4.23869 14.911 5.12785 15.7027 5.87089L18.7965 2.85018C16.8964 1.08405 14.4238 0 11.464 0C7.17654 0 3.47374 2.46039 1.67108 6.04135L5.21552 8.79412C6.10475 6.15102 8.56514 4.23869 11.464 4.23869Z" fill="#EB4335"/>
</g>
<defs>
<clipPath id="clip0_25_1417">
<rect width="21.4962" height="22" fill="white" transform="translate(0.501892)"/>
</clipPath>
</defs>
</svg>
