<svg width="32" height="32" viewBox="0 0 32 32" fill="none" xmlns="http://www.w3.org/2000/svg">
<path fill-rule="evenodd" clip-rule="evenodd" d="M14.8689 3.66882C15.4937 3.04399 16.5068 3.04399 17.1316 3.66882L28.3316 14.8688C28.7892 15.3264 28.9261 16.0146 28.6784 16.6125C28.4308 17.2104 27.8474 17.6002 27.2002 17.6002H25.6002V27.2002C25.6002 28.0839 24.8839 28.8002 24.0002 28.8002H20.8002C19.9166 28.8002 19.2002 28.0839 19.2002 27.2002V22.4002C19.2002 21.5165 18.4839 20.8002 17.6002 20.8002H14.4002C13.5166 20.8002 12.8002 21.5165 12.8002 22.4002V27.2002C12.8002 28.0839 12.0839 28.8002 11.2002 28.8002H8.00024C7.11659 28.8002 6.40024 28.0839 6.40024 27.2002V17.6002H4.80024C4.1531 17.6002 3.56968 17.2104 3.32203 16.6125C3.07439 16.0146 3.21127 15.3264 3.66887 14.8688L14.8689 3.66882Z" fill="#787878" fill-opacity="0.4" stroke="#787878" stroke-opacity="0.4" stroke-width="0.5" stroke-linecap="round" stroke-linejoin="round"/>
</svg>
