<svg width="28" height="28" viewBox="0 0 28 28" fill="none" xmlns="http://www.w3.org/2000/svg">
<path d="M17.6461 24.6166L7.81693 14.8166C7.70026 14.7 7.61782 14.5736 7.56959 14.4375C7.52059 14.3014 7.49609 14.1555 7.49609 14C7.49609 13.8444 7.52059 13.6986 7.56959 13.5625C7.61782 13.4264 7.70026 13.3 7.81693 13.1833L17.6461 3.35413C17.9183 3.08191 18.2586 2.9458 18.6669 2.9458C19.0753 2.9458 19.4253 3.09163 19.7169 3.3833C20.0086 3.67497 20.1544 4.01525 20.1544 4.40413C20.1544 4.79302 20.0086 5.1333 19.7169 5.42497L11.1419 14L19.7169 22.575C19.9891 22.8472 20.1253 23.1824 20.1253 23.5806C20.1253 23.9796 19.9794 24.325 19.6878 24.6166C19.3961 24.9083 19.0558 25.0541 18.6669 25.0541C18.278 25.0541 17.9378 24.9083 17.6461 24.6166Z" fill="#2C396C"/>
</svg>
