<svg width="24" height="24" viewBox="0 0 24 24" fill="none" xmlns="http://www.w3.org/2000/svg">
<path fill-rule="evenodd" clip-rule="evenodd" d="M2.40039 5.6998C2.40039 5.20275 2.80333 4.7998 3.30039 4.7998H20.7004C21.1974 4.7998 21.6004 5.20275 21.6004 5.6998C21.6004 6.19686 21.1974 6.5998 20.7004 6.5998H3.30039C2.80333 6.5998 2.40039 6.19686 2.40039 5.6998ZM2.40039 11.9998C2.40039 11.5027 2.80333 11.0998 3.30039 11.0998H20.7004C21.1974 11.0998 21.6004 11.5027 21.6004 11.9998C21.6004 12.4969 21.1974 12.8998 20.7004 12.8998H3.30039C2.80333 12.8998 2.40039 12.4969 2.40039 11.9998ZM2.40039 18.2998C2.40039 17.8027 2.80333 17.3998 3.30039 17.3998H20.7004C21.1974 17.3998 21.6004 17.8027 21.6004 18.2998C21.6004 18.7969 21.1974 19.1998 20.7004 19.1998H3.30039C2.80333 19.1998 2.40039 18.7969 2.40039 18.2998Z" fill="#62635E" stroke="#62635E" stroke-width="0.5" stroke-linecap="round" stroke-linejoin="round"/>
</svg>
