<svg width="26" height="26" viewBox="0 0 26 26" fill="none" xmlns="http://www.w3.org/2000/svg">
<path d="M12.3885 3.12808C12.5002 3.28285 12.5587 3.46974 12.555 3.66061C12.5514 3.85148 12.4858 4.036 12.3682 4.18636C11.6918 5.05168 10.2577 6.78433 8.83175 7.83652C7.07269 9.13652 5.47003 9.71949 4.65347 9.95714C4.29191 10.0628 3.90597 9.92261 3.68863 9.61589C3.15238 8.8623 2.29925 7.24746 2.63441 4.9623C3.10769 1.7123 6.83097 0.144176 9.2441 0.924176C11.6572 1.70418 12.3885 3.12808 12.3885 3.12808Z" fill="#FFC107"/>
<path d="M4.9766 9.34986C4.73895 9.44939 4.52363 9.17111 4.67598 8.96595C5.12285 8.36876 5.9902 7.3897 7.57254 6.11408C9.28895 4.73079 10.5057 4.24126 11.1699 4.06861C11.3994 4.0097 11.5761 4.26767 11.438 4.46064C10.9891 5.09033 10.0446 6.24001 8.49879 7.34298C6.99973 8.41345 5.72816 9.03298 4.9766 9.34986Z" fill="url(#paint0_radial_851_1190)"/>
<path d="M6.64807 1.77537C6.74151 2.17756 7.24932 2.31771 7.74088 2.23443C8.27307 2.14506 8.94338 2.0699 8.88041 1.52959C8.81541 0.970995 7.92572 0.993339 7.59666 1.01162C7.11526 1.04006 6.56479 1.4199 6.64807 1.77537Z" fill="#FFEE58"/>
<path d="M17.1137 0.755608C19.5431 0.101546 23.11 0.938421 23.825 5.14717C24.0971 6.74576 23.4614 8.16155 23.0165 8.91717C22.7971 9.29092 22.3685 9.48998 21.944 9.40467C21.1153 9.23811 19.5715 8.77295 17.5037 7.48108C16.354 6.76405 14.79 5.36655 13.9043 4.54389C13.5042 4.17217 13.4656 3.54858 13.8251 3.13623C14.5279 2.32983 15.765 1.1192 17.1137 0.755608Z" fill="#FFC107"/>
<path d="M14.9134 4.57034C14.7854 4.44237 14.9073 4.22706 15.084 4.27175C15.86 4.46675 17.292 4.90347 18.5636 5.69769C19.8676 6.51425 21.1859 7.75534 21.8542 8.41956C21.9862 8.54956 21.8562 8.76894 21.6775 8.71612C20.8609 8.47847 19.3598 7.95034 17.875 6.94894C16.3657 5.93128 15.405 5.05987 14.9134 4.57034Z" fill="url(#paint1_radial_851_1190)"/>
<path d="M16.9796 2.40505C16.1773 2.65693 15.9518 2.09021 16.3804 1.65959C16.6892 1.3488 17.9912 0.794273 19.1206 1.0299C19.8661 1.1863 20.0996 2.26084 19.0495 2.24662C18.3345 2.23646 17.9628 2.0963 16.9796 2.40505Z" fill="#FFEE58"/>
<path d="M22.3479 24.3851C19.819 22.7947 18.1249 19.697 17.8162 16.0976C17.5379 12.8456 18.326 9.55294 18.9598 6.90825L20.2598 7.49935C19.6545 10.0303 19.1791 12.9675 19.4351 15.9575C19.6991 19.0511 21.1129 21.6876 23.2132 23.0079L22.3479 24.3851ZM12.3054 23.8245L11.6351 22.3437C12.4293 21.9842 12.8884 20.9422 12.6162 20.1154C12.4841 19.7112 12.1998 19.3253 11.9012 18.917C11.6574 18.5839 11.4035 18.2386 11.1963 17.8425C10.656 16.8065 10.5281 15.5675 10.849 14.4442C11.0115 13.8775 11.2695 13.3758 11.5213 12.8903C11.8057 12.3418 12.0718 11.8259 12.1409 11.3059C12.2038 10.8245 12.0901 10.3147 11.826 9.90638C11.5863 9.53872 11.2166 9.22185 10.8246 8.88872C10.5281 8.63481 10.2193 8.37278 9.93696 8.06403C9.26868 7.33278 9.00868 6.46138 9.01274 5.48841L10.1441 5.05981C10.1441 5.05981 10.3493 6.16481 10.6256 6.6056C10.916 7.06669 11.3487 7.3795 11.759 7.72888C12.2221 8.12497 12.8213 8.45606 13.189 9.02481C13.6602 9.752 13.8654 10.662 13.7516 11.5233C13.646 12.3236 13.2987 12.9939 12.9635 13.6418C12.7401 14.0745 12.5288 14.4828 12.411 14.8951C12.2038 15.6223 12.2851 16.4247 12.6365 17.095C12.7868 17.3834 12.992 17.6637 13.2113 17.9623C13.5729 18.4559 13.9466 18.9637 14.1599 19.6137C14.6941 21.2286 13.8613 23.1217 12.3054 23.8245Z" fill="#03A9F4"/>
<path d="M2.13461 25.0474L1.17383 23.7372C7.33461 19.2238 7.9907 12.6141 7.55602 9.24627L8.78289 8.87048C9.2643 12.5938 8.96773 20.0424 2.13461 25.0474Z" fill="#F48FB1"/>
<path d="M19.281 14.9013L19.3886 14.9846C19.3764 14.3163 19.4089 13.6439 19.4719 12.9777C18.9275 12.5247 18.4197 12.0393 18.0541 11.4705C18.0439 11.4543 18.0358 11.438 18.0257 11.4218C17.916 12.153 17.8307 12.9005 17.79 13.6541C18.2755 14.1193 18.7955 14.5255 19.281 14.9013Z" fill="#0076C6"/>
<path d="M23.3451 19.3679L21.8704 18.6834C22.2462 17.875 21.9313 16.8979 21.5129 16.254C20.9685 15.4172 20.1113 14.7509 19.2806 14.107C18.3888 13.4164 17.3793 12.6343 16.6846 11.5517C15.407 9.5631 15.6324 7.087 17.0726 5.21216L18.2527 5.87231C17.2168 7.2231 17.1335 9.24013 18.0517 10.6722C18.594 11.5192 19.4492 12.1793 20.2759 12.8212C21.1696 13.5139 22.1812 14.2979 22.8759 15.3664C23.7127 16.6562 23.8935 18.1898 23.3451 19.3679ZM1.82603 18.8073C1.52134 17.0848 2.78072 16.1931 3.45712 15.7137C3.53837 15.6568 3.6379 15.5858 3.70697 15.5309C3.70087 15.3867 3.60337 15.2059 3.42056 14.8992C3.11993 14.3934 2.70962 13.6987 3.02447 12.8151C3.29868 12.0473 4.09493 11.7934 4.62306 11.4968C5.074 11.2429 5.40103 10.9342 5.56353 10.4183C5.75243 9.817 5.6204 8.30575 5.6204 8.30575L6.61165 7.72685C6.61165 7.72685 6.92447 9.17106 6.92447 9.90638C6.92447 11.9904 5.76868 12.5226 5.28118 12.7968C4.944 12.9858 4.62509 13.1645 4.55603 13.3595C4.50525 13.5017 4.57634 13.6622 4.82009 14.0725C5.11259 14.564 5.51072 15.2404 5.25072 16.1037C5.12478 16.5242 4.77134 16.7761 4.39759 17.0401C3.7354 17.5093 3.30884 17.8668 3.42665 18.525L1.82603 18.8073ZM15.2445 16.709C14.5213 16.5364 14.0277 16.1058 13.5849 15.7401L14.6209 14.4868C14.6209 14.4868 14.9885 15.0333 15.7949 15.2851L15.2445 16.709ZM13.9404 7.56435L12.7399 6.8595L13.6093 5.48435L14.8118 6.18919L13.9404 7.56435ZM17.0563 23.0668L15.4374 22.0614L16.6867 20.672L17.9359 21.8583L17.0563 23.0668Z" fill="#F44336"/>
<path d="M22.1826 12.2213L23.1353 10.905L24.549 11.928L23.5962 13.2442L22.1826 12.2213Z" fill="#FB8C00"/>
<path d="M10.7436 11.5903L9.30957 10.5991L10.055 9.60986L11.4871 10.6011L10.7436 11.5903Z" fill="#F44336"/>
<path d="M12.4775 13.3229C12.4775 13.3229 12.7538 13.3128 13.0971 13.3798C13.3449 12.8923 13.5805 12.3845 13.7024 11.8137C13.2799 11.7183 12.9407 11.765 12.9407 11.765L12.4775 13.3229Z" fill="#0076C6"/>
<path d="M14.4053 13.5139C13.8386 13.0305 12.892 13.065 12.892 13.065L13.3531 11.507C13.3531 11.507 14.4012 11.3608 15.1081 12.0981L14.4053 13.5139ZM0.942383 19.9692L2.41646 19.879L2.51538 21.5012L1.04151 21.591L0.942383 19.9692ZM8.76859 19.6849L7.83218 18.3564C8.24656 18.0639 8.6264 17.7166 8.95546 17.3286L10.1945 18.3808C9.77547 18.8733 9.29644 19.3114 8.76859 19.6849Z" fill="#FB8C00"/>
<path d="M8.78074 23.4386C8.29324 23.0365 7.7773 22.6627 7.24512 22.3255L8.11449 20.9524C8.70356 21.3241 9.27434 21.7385 9.81465 22.1833L8.78074 23.4386Z" fill="#F44336"/>
<path d="M17.8447 16.2682C17.9016 16.9406 17.9808 17.424 18.1311 18.0537L19.2016 17.1945L18.1596 15.8925L17.8447 16.2682Z" fill="#0076C6"/>
<path d="M16.1221 17.3051L17.7593 15.9927L18.7755 17.2604L17.1383 18.573L16.1221 17.3051Z" fill="#FFC107"/>
<path d="M15.5638 25.4435C15.2795 24.9215 14.9605 24.4116 14.6152 23.9282L15.9376 22.9836C16.3228 23.5226 16.6743 24.085 16.9898 24.6675L15.5638 25.4435Z" fill="#FB8C00"/>
<defs>
<radialGradient id="paint0_radial_851_1190" cx="0" cy="0" r="1" gradientUnits="userSpaceOnUse" gradientTransform="translate(8.05638 6.71654) scale(3.06759)">
<stop offset="0.376" stop-color="#AF5700"/>
<stop offset="1" stop-color="#8F4700"/>
</radialGradient>
<radialGradient id="paint1_radial_851_1190" cx="0" cy="0" r="1" gradientUnits="userSpaceOnUse" gradientTransform="translate(18.383 6.49394) scale(4.31112)">
<stop offset="0.376" stop-color="#AF5700"/>
<stop offset="1" stop-color="#8F4700"/>
</radialGradient>
</defs>
</svg>
