<svg xmlns="http://www.w3.org/2000/svg" width="28" height="28" viewBox="0 0 28 28" fill="none">
  <path d="M10.3539 24.6166L20.1831 14.8166C20.2997 14.7 20.3822 14.5736 20.4304 14.4375C20.4794 14.3014 20.5039 14.1555 20.5039 14C20.5039 13.8444 20.4794 13.6986 20.4304 13.5625C20.3822 13.4264 20.2997 13.3 20.1831 13.1833L10.3539 3.35413C10.0817 3.08191 9.74141 2.9458 9.33307 2.9458C8.92474 2.9458 8.57474 3.09163 8.28307 3.3833C7.99141 3.67497 7.84557 4.01525 7.84557 4.40413C7.84557 4.79302 7.99141 5.1333 8.28307 5.42497L16.8581 14L8.28307 22.575C8.01085 22.8472 7.87474 23.1824 7.87474 23.5806C7.87474 23.9796 8.02057 24.325 8.31224 24.6166C8.60391 24.9083 8.94418 25.0541 9.33307 25.0541C9.72196 25.0541 10.0622 24.9083 10.3539 24.6166Z" fill="#2C396C"/>
</svg>