<svg width="32" height="32" viewBox="0 0 32 32" fill="none" xmlns="http://www.w3.org/2000/svg">
<path d="M8 5C11.0734 5 13.877 6.15541 16 8.05557C18.123 6.15541 20.9266 5 24 5C25.4025 5 26.7489 5.24062 28 5.68282V24.6828C26.7489 24.2406 25.4025 24 24 24C20.9266 24 18.123 25.1554 16 27.0556C13.877 25.1554 11.0734 24 8 24C6.59746 24 5.25112 24.2406 4 24.6828V5.68282C5.25112 5.24062 6.59746 5 8 5Z" fill="#787878" fill-opacity="0.4"/>
<path d="M16 8.05557C13.877 6.15541 11.0734 5 8 5C6.59746 5 5.25112 5.24062 4 5.68282V24.6828C5.25112 24.2406 6.59746 24 8 24C11.0734 24 13.877 25.1554 16 27.0556M16 8.05557C18.123 6.15541 20.9266 5 24 5C25.4025 5 26.7489 5.24062 28 5.68282V24.6828C26.7489 24.2406 25.4025 24 24 24C20.9266 24 18.123 25.1554 16 27.0556M16 8.05557V27.0556" stroke="#787878" stroke-opacity="0.4" stroke-width="0.5" stroke-linecap="round" stroke-linejoin="round"/>
</svg>
