<svg width="102" height="162" viewBox="0 0 102 162" fill="none" xmlns="http://www.w3.org/2000/svg">
<path d="M18.57 133.794L18.5737 133.794C32.719 130.767 43.1071 124.928 48.8106 116.032L48.8179 116.021L48.8251 116.009C51.7147 111.397 53.3983 106.152 53.7154 100.777L53.8692 98.1694L51.2609 98.2038L10.6543 98.7379C8.68034 98.7639 6.79776 98.001 5.42143 96.6131C4.04469 95.2248 3.28755 93.3246 3.32046 91.3299L4.47621 21.2897C4.63574 11.6223 12.5894 3.67488 22.1803 3.54871L91.8827 2.63178C93.8566 2.60582 95.7392 3.36872 97.1155 4.75663C98.4923 6.14495 99.2494 8.0451 99.2165 10.0398L97.8956 90.0858L97.8916 90.3321L97.9122 90.4448C97.9141 90.4809 97.9164 90.5276 97.9188 90.585C97.9267 90.7706 97.9351 91.0516 97.9388 91.4206C97.946 92.158 97.9337 93.2367 97.8596 94.5956C97.7111 97.3151 97.3157 101.14 96.3399 105.586C94.386 114.488 90.1289 125.781 80.9663 135.715C67.3756 150.435 46.8828 158.283 19.6211 158.641L12.1634 158.74L12.554 135.072L18.57 133.794Z" stroke="#EFEFEF" stroke-width="5"/>
</svg>
