<svg width="42" height="42" viewBox="0 0 42 42" fill="none" xmlns="http://www.w3.org/2000/svg">
<path d="M20.0913 6.1227C20.4275 5.31424 21.5728 5.31424 21.9091 6.1227L25.6295 15.0678C25.7713 15.4086 26.0918 15.6415 26.4598 15.6709L36.1167 16.4451C36.9895 16.5151 37.3434 17.6043 36.6784 18.174L29.3208 24.4765C29.0405 24.7166 28.9181 25.0934 29.0037 25.4525L31.2516 34.876C31.4547 35.7277 30.5282 36.4009 29.781 35.9445L21.5133 30.8946C21.1983 30.7022 20.8021 30.7022 20.4871 30.8946L12.2194 35.9445C11.4721 36.4009 10.5456 35.7277 10.7488 34.876L12.9966 25.4525C13.0823 25.0934 12.9598 24.7166 12.6795 24.4765L5.32194 18.174C4.65696 17.6043 5.01087 16.5151 5.88367 16.4451L15.5406 15.6709C15.9085 15.6415 16.2291 15.4086 16.3708 15.0678L20.0913 6.1227Z" stroke="#FFD363" stroke-width="1.5" stroke-linecap="round" stroke-linejoin="round"/>
</svg>
