<svg width="570" height="910" viewBox="0 0 570 910" fill="none" xmlns="http://www.w3.org/2000/svg">
<path d="M98.586 743.6L98.5897 743.599C176.789 726.865 231.837 695.081 261.592 648.668L261.6 648.657L261.607 648.645C276.846 624.321 285.726 596.657 287.399 568.303L287.553 565.696L284.945 565.731L55.8173 568.745C41.5827 568.932 28.0225 563.43 18.1203 553.444C8.21777 543.458 2.78507 529.807 3.02128 515.492L9.54276 120.281C10.5478 59.3765 60.6561 9.21532 121.237 8.41838L514.541 3.24452C528.776 3.05727 542.336 8.55963 552.238 18.5451C562.141 28.531 567.573 42.1825 567.337 56.4973L559.884 508.166L559.88 508.413L559.911 508.585C559.91 508.585 559.92 508.683 559.937 508.949C559.957 509.261 559.981 509.714 560.006 510.305C560.056 511.484 560.107 513.194 560.128 515.393C560.172 519.789 560.098 526.125 559.665 534.055C558.799 549.918 556.498 572.139 550.834 597.946C539.503 649.571 514.737 715.448 461.173 773.525C381.557 859.752 262.33 904.706 106.414 906.757L52.7273 907.464L55.2794 752.799L98.586 743.6Z" stroke="#D6811E" stroke-width="5"/>
</svg>
