<?xml version="1.0" standalone="no"?>
<!DOCTYPE svg PUBLIC "-//W3C//DTD SVG 20010904//EN"
 "http://www.w3.org/TR/2001/REC-SVG-20010904/DTD/svg10.dtd">
<svg version="1.0" xmlns="http://www.w3.org/2000/svg"
 width="700.000000pt" height="700.000000pt" viewBox="0 0 700.000000 700.000000"
 preserveAspectRatio="xMidYMid meet">
<metadata>
Created by potrace 1.14, written by Peter Selinger 2001-2017
</metadata>
<g transform="translate(0.000000,700.000000) scale(0.100000,-0.100000)"
fill="#000000" stroke="none">
<path d="M3320 5845 c-602 -9 -859 -16 -895 -25 -203 -50 -372 -220 -420 -421
-22 -93 -55 -2056 -36 -2121 7 -24 13 -45 12 -48 0 -3 23 -28 50 -57 88 -88
77 -87 737 -78 l562 7 0 -27 c0 -47 -32 -168 -65 -247 -79 -187 -225 -328
-449 -434 -121 -57 -237 -94 -436 -138 -90 -21 -165 -38 -166 -39 -1 -1 -5
-175 -10 -386 l-7 -384 284 6 c299 6 423 18 638 63 854 179 1412 744 1546
1564 21 131 23 200 41 1440 13 829 14 1105 5 1137 -18 67 -70 133 -131 167
l-55 31 -180 1 c-99 1 -560 -4 -1025 -11z m1188 -159 c57 -30 55 19 38 -1027
-9 -530 -16 -1038 -17 -1129 -2 -411 -50 -657 -180 -930 -82 -171 -166 -289
-313 -436 -144 -143 -259 -227 -431 -312 -314 -156 -627 -223 -1153 -245 l-92
-5 2 246 3 245 110 24 c379 85 660 242 827 463 67 88 143 246 168 350 11 48
23 141 27 213 l6 128 -109 -5 c-60 -3 -356 -8 -657 -12 -498 -5 -551 -4 -574
11 -53 35 -52 4 -37 1015 8 514 18 974 23 1021 12 110 47 186 118 257 60 60
135 98 220 113 54 9 944 24 1671 27 261 2 328 -1 350 -12z"/>
</g>
</svg>
